<?xml version="1.0" standalone="no"?>
<!DOCTYPE svg PUBLIC "-//W3C//DTD SVG 20010904//EN"
 "http://www.w3.org/TR/2001/REC-SVG-20010904/DTD/svg10.dtd">
<svg version="1.0" xmlns="http://www.w3.org/2000/svg"
 width="531.000000pt" height="531.000000pt" viewBox="0 0 531.000000 531.000000"
 preserveAspectRatio="xMidYMid meet">
<metadata>
Created by potrace 1.11, written by Peter Selinger 2001-2013
</metadata>
<g transform="translate(0.000000,531.000000) scale(0.100000,-0.100000)"
fill="#000000" stroke="none">
<path d="M2485 5212 c-2 -2 -45 -6 -97 -8 -179 -7 -229 -12 -245 -26 -14 -11
-15 -11 -9 0 8 14 5 14 -114 -3 -14 -2 -52 -7 -85 -11 -33 -3 -69 -8 -80 -10
-11 -3 -42 -7 -70 -10 -27 -3 -57 -7 -65 -10 -8 -3 -35 -8 -60 -11 -25 -3 -47
-8 -50 -12 -3 -4 -15 -6 -27 -5 -12 1 -82 -12 -155 -27 -73 -16 -144 -31 -158
-34 -65 -14 -71 -16 -64 -28 5 -9 4 -9 -5 -1 -13 12 -61 7 -61 -6 0 -4 -6 -7
-12 -6 -29 3 -137 -27 -131 -37 3 -6 1 -7 -5 -3 -6 4 -31 1 -54 -5 -24 -7 -45
-13 -48 -14 -3 -1 -23 -7 -45 -13 -22 -6 -43 -12 -47 -13 -34 -6 -496 -167
-553 -193 -16 -7 -52 -22 -80 -31 -27 -10 -54 -21 -60 -25 -5 -4 -31 -14 -57
-24 l-46 -17 4 -52 c2 -29 9 -77 15 -107 5 -30 13 -75 16 -100 3 -25 8 -47 12
-50 3 -3 7 -23 9 -45 2 -22 9 -66 17 -98 8 -32 17 -73 21 -90 12 -73 77 -312
85 -315 5 -2 7 -7 4 -11 -2 -5 0 -23 6 -42 5 -19 12 -41 14 -49 2 -8 14 -46
26 -85 13 -38 23 -72 24 -75 14 -53 29 -101 40 -125 7 -16 24 -64 38 -105 26
-77 52 -149 67 -185 5 -11 37 -87 71 -170 62 -152 89 -213 160 -362 22 -46 40
-86 40 -90 0 -5 7 -16 16 -25 8 -9 16 -28 17 -41 0 -14 4 -23 7 -21 11 6 32
-44 24 -57 -5 -8 -4 -10 4 -5 7 5 19 -10 34 -41 12 -26 26 -54 31 -62 14 -22
16 -82 3 -74 -6 4 -7 1 -2 -8 13 -20 14 -120 2 -112 -6 4 -7 1 -2 -7 13 -21
14 -121 2 -113 -6 3 -7 1 -3 -6 14 -22 17 -63 5 -55 -8 5 -9 3 -4 -7 13 -20
14 -199 2 -192 -6 3 -7 1 -3 -6 14 -22 17 -63 5 -55 -8 4 -9 3 -5 -4 4 -7 9
-21 11 -33 3 -17 0 -20 -15 -16 -11 3 -18 1 -14 -4 3 -5 12 -9 21 -9 25 0 192
-93 186 -103 -3 -6 -1 -7 5 -3 10 6 130 -47 142 -63 3 -4 20 -13 38 -20 17 -8
32 -17 32 -22 0 -5 7 -9 15 -9 24 0 76 -30 70 -39 -3 -5 4 -7 15 -4 12 3 22
-1 26 -11 3 -9 10 -13 15 -10 5 3 9 1 9 -3 0 -5 9 -9 20 -10 25 -2 52 -27 42
-39 -4 -5 3 0 16 10 12 11 22 16 22 11 0 -4 7 -2 15 5 8 7 15 8 15 3 0 -5 12
-24 28 -41 15 -17 34 -40 42 -51 19 -24 146 -165 230 -254 110 -117 163 -166
173 -160 6 3 7 2 4 -4 -4 -6 29 -44 73 -86 44 -42 80 -75 80 -73 0 2 20 -15
44 -38 76 -75 258 -221 272 -220 8 1 11 -2 9 -7 -3 -4 7 -16 22 -26 15 -10 33
-25 40 -33 7 -8 13 -11 13 -6 0 6 6 2 13 -7 6 -9 39 -36 71 -60 l60 -45 47 30
c27 16 62 42 80 59 17 16 34 29 38 29 3 0 20 13 38 28 17 15 52 44 77 65 26
21 43 43 40 49 -5 7 -2 8 5 4 8 -5 28 8 52 33 22 23 43 41 46 41 3 0 32 27 65
60 34 33 65 60 70 60 5 0 6 5 3 10 -3 6 -1 10 5 10 15 0 199 191 196 204 -2 6
-1 7 2 3 2 -5 13 -1 23 9 10 9 16 21 13 26 -3 4 -2 7 3 6 16 -5 125 120 117
133 -4 7 -3 9 3 6 13 -8 46 27 36 38 -5 4 -2 5 5 1 7 -4 15 -1 18 9 4 9 26 36
50 60 23 24 48 53 54 64 6 12 18 21 28 22 9 0 12 3 6 5 -8 3 -4 13 9 29 12 13
26 21 30 18 5 -3 3 -10 -4 -15 -10 -6 -7 -7 9 -3 15 4 22 2 22 -7 0 -8 3 -9 8
-3 10 14 84 50 99 48 7 0 11 3 8 7 -3 4 2 11 11 14 21 8 26 8 20 -2 -3 -5 1
-9 9 -9 11 0 12 4 4 14 -11 12 -5 17 14 14 4 0 7 3 7 7 0 12 46 32 62 28 7 -1
9 -1 5 2 -15 7 45 41 61 34 9 -3 13 -1 9 4 -8 14 50 47 69 40 8 -3 13 -2 10 3
-3 5 1 14 9 21 8 7 15 9 15 5 0 -4 6 -2 13 4 8 6 17 8 20 4 4 -3 7 -1 7 5 0
15 66 46 80 37 6 -3 7 -12 4 -18 -4 -7 -3 -8 1 -4 12 10 15 38 4 31 -5 -3 -9
-2 -9 3 0 4 23 19 50 32 46 23 50 28 51 60 0 20 0 182 1 360 0 318 4 360 32
343 5 -3 6 0 2 6 -4 6 1 23 10 37 9 14 12 25 8 25 -5 0 -4 4 1 8 6 4 16 19 22
34 9 20 17 26 30 22 14 -5 15 -4 4 4 -11 8 -4 29 39 115 30 61 49 111 44 118
-4 7 -3 10 3 6 6 -4 30 38 58 101 26 59 60 134 75 167 15 33 31 71 35 85 4 14
13 39 21 55 20 47 79 202 108 290 15 44 31 89 36 100 10 23 24 70 21 70 -2 0
7 24 18 53 11 28 30 85 40 125 11 39 36 133 57 207 20 74 37 142 39 150 2 8 9
38 15 65 6 28 14 61 16 75 3 14 9 39 14 55 5 17 11 46 14 65 3 19 9 49 13 65
4 17 7 46 7 67 1 20 4 34 7 32 4 -2 11 27 17 64 10 70 2 98 -25 88 -8 -3 -11
-2 -8 4 12 20 -543 270 -610 274 -13 0 -22 3 -19 5 2 2 -27 14 -64 26 -233 76
-415 125 -468 128 -23 1 -40 5 -37 10 2 4 -8 8 -24 9 -42 2 -57 5 -73 11 -8 4
-28 9 -45 12 -16 3 -41 8 -55 11 -99 19 -179 31 -202 29 -15 0 -25 2 -22 6 2
4 -4 7 -13 7 -10 0 -40 3 -68 7 -143 20 -165 21 -176 11 -9 -8 -10 -7 -4 3 6
11 0 13 -29 9 -20 -2 -36 -1 -36 2 0 3 -10 6 -22 7 -29 1 -231 12 -280 16 -21
1 -38 -2 -38 -8 0 -7 -3 -7 -8 0 -11 15 -46 19 -36 4 5 -9 3 -9 -7 -3 -21 14
-191 14 -208 1 -12 -9 -13 -9 -8 0 6 10 -19 12 -108 10 -64 -1 -118 -4 -120
-5z m116 -35 c-10 -9 -11 -8 -5 6 3 10 9 15 12 12 3 -3 0 -11 -7 -18z m-186
-27 c3 -6 -1 -7 -9 -4 -18 7 -21 14 -7 14 6 0 13 -4 16 -10z m690 -48 c-3 -3
-11 0 -18 7 -9 10 -8 11 6 5 10 -3 15 -9 12 -12z m429 10 c3 -5 -1 -9 -9 -9
-8 0 -12 4 -9 9 3 4 7 8 9 8 2 0 6 -4 9 -8z m-1891 -3957 c-3 -9 -8 -14 -10
-11 -3 3 -2 9 2 15 9 16 15 13 8 -4z m1880 -240 c-3 -9 -8 -14 -10 -11 -3 3
-2 9 2 15 9 16 15 13 8 -4z m-278 -195 c10 -11 16 -20 13 -20 -3 0 -13 9 -23
20 -10 11 -16 20 -13 20 3 0 13 -9 23 -20z m-1078 -125 c0 -8 -4 -12 -9 -9 -5
3 -6 10 -3 15 9 13 12 11 12 -6z m327 -243 c3 -5 -1 -9 -9 -9 -8 0 -15 4 -15
9 0 4 4 8 9 8 6 0 12 -4 15 -8z"/>
<path d="M660 2276 c0 -2 8 -10 18 -17 15 -13 16 -12 3 4 -13 16 -21 21 -21
13z"/>
<path d="M713 2265 c0 -8 4 -12 9 -9 5 3 6 10 3 15 -9 13 -12 11 -12 -6z"/>
<path d="M755 2271 c-3 -5 -2 -12 3 -15 5 -3 9 1 9 9 0 17 -3 19 -12 6z"/>
<path d="M4516 2251 c-3 -5 2 -15 12 -22 15 -12 16 -12 5 2 -7 9 -10 19 -6 22
3 4 4 7 0 7 -3 0 -8 -4 -11 -9z"/>
<path d="M4553 2245 c0 -8 4 -12 9 -9 5 3 6 10 3 15 -9 13 -12 11 -12 -6z"/>
<path d="M764 2112 c4 -3 14 -7 22 -8 9 -1 13 0 10 4 -4 3 -14 7 -22 8 -9 1
-13 0 -10 -4z"/>
<path d="M676 2068 c3 -5 10 -6 15 -3 13 9 11 12 -6 12 -8 0 -12 -4 -9 -9z"/>
<path d="M4570 2051 c0 -6 4 -13 10 -16 6 -3 7 1 4 9 -7 18 -14 21 -14 7z"/>
<path d="M4516 1971 c-3 -4 4 -17 17 -27 22 -19 22 -19 4 2 -9 11 -14 24 -10
27 3 4 4 7 0 7 -3 0 -8 -4 -11 -9z"/>
<path d="M4576 1928 c3 -5 10 -6 15 -3 13 9 11 12 -6 12 -8 0 -12 -4 -9 -9z"/>
<path d="M756 1863 c-6 -14 -5 -15 5 -6 7 7 10 15 7 18 -3 3 -9 -2 -12 -12z"/>
<path d="M4515 1869 c-3 -4 2 -6 10 -5 21 3 28 13 10 13 -9 0 -18 -4 -20 -8z"/>
<path d="M760 1790 c-9 -6 -10 -10 -3 -10 6 0 15 5 18 10 8 12 4 12 -15 0z"/>
<path d="M790 1771 c0 -6 4 -13 10 -16 6 -3 7 1 4 9 -7 18 -14 21 -14 7z"/>
<path d="M750 1749 c0 -5 5 -7 10 -4 6 3 10 8 10 11 0 2 -4 4 -10 4 -5 0 -10
-5 -10 -11z"/>
<path d="M4515 1629 c-3 -4 2 -6 10 -5 21 3 28 13 10 13 -9 0 -18 -4 -20 -8z"/>
<path d="M750 1589 c0 -5 5 -7 10 -4 6 3 10 8 10 11 0 2 -4 4 -10 4 -5 0 -10
-5 -10 -11z"/>
<path d="M4526 1568 c3 -5 10 -6 15 -3 13 9 11 12 -6 12 -8 0 -12 -4 -9 -9z"/>
<path d="M4573 1565 c0 -8 4 -12 9 -9 5 3 6 10 3 15 -9 13 -12 11 -12 -6z"/>
<path d="M759 1528 c-5 -18 -6 -38 -1 -34 7 8 12 36 6 36 -2 0 -4 -1 -5 -2z"/>
<path d="M4440 1490 c-9 -6 -10 -10 -3 -10 6 0 15 5 18 10 8 12 4 12 -15 0z"/>
<path d="M790 1471 c0 -6 4 -13 10 -16 6 -3 7 1 4 9 -7 18 -14 21 -14 7z"/>
<path d="M873 1465 c0 -8 4 -12 9 -9 4 3 8 9 8 15 0 5 -4 9 -8 9 -5 0 -9 -7
-9 -15z"/>
<path d="M4516 1468 c3 -5 10 -6 15 -3 13 9 11 12 -6 12 -8 0 -12 -4 -9 -9z"/>
<path d="M4450 1449 c0 -5 5 -7 10 -4 6 3 10 8 10 11 0 2 -4 4 -10 4 -5 0 -10
-5 -10 -11z"/>
<path d="M4485 1450 c-3 -6 1 -7 9 -4 18 7 21 14 7 14 -6 0 -13 -4 -16 -10z"/>
<path d="M933 1435 c0 -8 4 -15 9 -15 4 0 8 4 8 9 0 6 -4 12 -8 15 -5 3 -9 -1
-9 -9z"/>
<path d="M4370 1409 c0 -5 5 -7 10 -4 6 3 10 8 10 11 0 2 -4 4 -10 4 -5 0 -10
-5 -10 -11z"/>
<path d="M994 1384 c1 -8 4 -15 7 -16 2 -2 3 -1 2 1 -2 2 2 9 7 16 7 8 5 12
-4 12 -8 0 -13 -6 -12 -13z"/>
<path d="M4390 1370 c0 -5 5 -10 11 -10 5 0 7 5 4 10 -3 6 -8 10 -11 10 -2 0
-4 -4 -4 -10z"/>
<path d="M1102 1357 c10 -8 14 -18 10 -22 -4 -5 -1 -5 6 -1 17 10 15 14 -10
26 -21 10 -21 10 -6 -3z"/>
<path d="M4230 1367 c0 -2 6 -10 14 -16 11 -9 16 -9 22 1 4 7 4 10 -1 6 -4 -4
-14 -3 -22 3 -7 6 -13 9 -13 6z"/>
<path d="M4295 1330 c3 -5 8 -10 11 -10 2 0 4 5 4 10 0 6 -5 10 -11 10 -5 0
-7 -4 -4 -10z"/>
<path d="M4056 1277 c3 -10 9 -15 12 -12 3 3 0 11 -7 18 -10 9 -11 8 -5 -6z"/>
<path d="M1186 1268 c3 -5 10 -6 15 -3 13 9 11 12 -6 12 -8 0 -12 -4 -9 -9z"/>
<path d="M1113 1255 c0 -8 4 -12 9 -9 5 3 6 10 3 15 -9 13 -12 11 -12 -6z"/>
<path d="M1227 1249 c7 -7 15 -10 18 -7 3 3 -2 9 -12 12 -14 6 -15 5 -6 -5z"/>
<path d="M4079 1243 c-13 -16 -12 -17 4 -4 16 13 21 21 13 21 -2 0 -10 -8 -17
-17z"/>
<path d="M4115 1249 c-3 -4 2 -6 10 -5 21 3 28 13 10 13 -9 0 -18 -4 -20 -8z"/>
<path d="M1155 1241 c-3 -5 -2 -12 3 -15 5 -3 9 1 9 9 0 17 -3 19 -12 6z"/>
<path d="M1295 1229 c-3 -4 2 -6 10 -5 21 3 28 13 10 13 -9 0 -18 -4 -20 -8z"/>
<path d="M1213 1215 c0 -8 4 -12 9 -9 5 3 6 10 3 15 -9 13 -12 11 -12 -6z"/>
<path d="M1250 1209 c0 -5 5 -7 10 -4 6 3 10 8 10 11 0 2 -4 4 -10 4 -5 0 -10
-5 -10 -11z"/>
<path d="M3941 1211 c-10 -7 -7 -9 12 -8 14 1 23 5 20 10 -6 9 -15 9 -32 -2z"/>
<path d="M3996 1208 c3 -5 10 -6 15 -3 13 9 11 12 -6 12 -8 0 -12 -4 -9 -9z"/>
<path d="M4050 1210 c0 -5 5 -10 11 -10 5 0 7 5 4 10 -3 6 -8 10 -11 10 -2 0
-4 -4 -4 -10z"/>
<path d="M1375 1199 c-4 -6 -5 -12 -2 -15 2 -3 7 2 10 11 7 17 1 20 -8 4z"/>
<path d="M3890 1191 c0 -6 4 -13 10 -16 6 -3 7 1 4 9 -7 18 -14 21 -14 7z"/>
<path d="M1369 1153 c-13 -16 -12 -17 4 -4 16 13 21 21 13 21 -2 0 -10 -8 -17
-17z"/>
<path d="M3850 1149 c0 -5 5 -7 10 -4 6 3 10 8 10 11 0 2 -4 4 -10 4 -5 0 -10
-5 -10 -11z"/>
</g>
</svg>
